<?xml version="1.0" encoding="UTF-8" standalone="no"?>
<!DOCTYPE svg PUBLIC "-//W3C//DTD SVG 1.1//EN"
 "http://www.w3.org/Graphics/SVG/1.1/DTD/svg11.dtd">
<!-- Generated by graphviz version 2.43.0 (0)
 -->
<!-- Title: Tree Pages: 1 -->
<svg width="2058pt" height="373pt"
 viewBox="0.00 0.00 2057.50 373.00" xmlns="http://www.w3.org/2000/svg" xmlns:xlink="http://www.w3.org/1999/xlink">
<g id="graph0" class="graph" transform="scale(1 1) rotate(0) translate(4 369)">
<title>Tree</title>
<polygon fill="white" stroke="transparent" points="-4,4 -4,-369 2053.5,-369 2053.5,4 -4,4"/>
<!-- 0 -->
<g id="node1" class="node">
<title>0</title>
<path fill="#f4c8a9" stroke="black" d="M1149.5,-365C1149.5,-365 927.5,-365 927.5,-365 921.5,-365 915.5,-359 915.5,-353 915.5,-353 915.5,-309 915.5,-309 915.5,-303 921.5,-297 927.5,-297 927.5,-297 1149.5,-297 1149.5,-297 1155.5,-297 1161.5,-303 1161.5,-309 1161.5,-309 1161.5,-353 1161.5,-353 1161.5,-359 1155.5,-365 1149.5,-365"/>
<text text-anchor="start" x="998.5" y="-349.8" font-family="Helvetica,sans-Serif" font-size="14.00">Age ≤ 40.5</text>
<text text-anchor="start" x="923.5" y="-334.8" font-family="Helvetica,sans-Serif" font-size="14.00">squared_error = 2311313212.46</text>
<text text-anchor="start" x="985.5" y="-319.8" font-family="Helvetica,sans-Serif" font-size="14.00">samples = 259</text>
<text text-anchor="start" x="966" y="-304.8" font-family="Helvetica,sans-Serif" font-size="14.00">value = 100001.351</text>
</g>
<!-- 1 -->
<g id="node2" class="node">
<title>1</title>
<path fill="#f9e2d1" stroke="black" d="M885.5,-261C885.5,-261 663.5,-261 663.5,-261 657.5,-261 651.5,-255 651.5,-249 651.5,-249 651.5,-205 651.5,-205 651.5,-199 657.5,-193 663.5,-193 663.5,-193 885.5,-193 885.5,-193 891.5,-193 897.5,-199 897.5,-205 897.5,-205 897.5,-249 897.5,-249 897.5,-255 891.5,-261 885.5,-261"/>
<text text-anchor="start" x="744" y="-245.8" font-family="Helvetica,sans-Serif" font-size="14.00">xp ≤ 5.5</text>
<text text-anchor="start" x="659.5" y="-230.8" font-family="Helvetica,sans-Serif" font-size="14.00">squared_error = 821224240.202</text>
<text text-anchor="start" x="721.5" y="-215.8" font-family="Helvetica,sans-Serif" font-size="14.00">samples = 167</text>
<text text-anchor="start" x="706.5" y="-200.8" font-family="Helvetica,sans-Serif" font-size="14.00">value = 71409.281</text>
</g>
<!-- 0&#45;&gt;1 -->
<g id="edge1" class="edge">
<title>0&#45;&gt;1</title>
<path fill="none" stroke="black" d="M952.79,-296.88C926.25,-286.63 896.87,-275.28 869.73,-264.79"/>
<polygon fill="black" stroke="black" points="870.82,-261.46 860.23,-261.12 868.3,-267.99 870.82,-261.46"/>
<text text-anchor="middle" x="870.35" y="-280.29" font-family="Helvetica,sans-Serif" font-size="14.00">True</text>
</g>
<!-- 8 -->
<g id="node9" class="node">
<title>8</title>
<path fill="#ea995f" stroke="black" d="M1404.5,-261C1404.5,-261 1182.5,-261 1182.5,-261 1176.5,-261 1170.5,-255 1170.5,-249 1170.5,-249 1170.5,-205 1170.5,-205 1170.5,-199 1176.5,-193 1182.5,-193 1182.5,-193 1404.5,-193 1404.5,-193 1410.5,-193 1416.5,-199 1416.5,-205 1416.5,-205 1416.5,-249 1416.5,-249 1416.5,-255 1410.5,-261 1404.5,-261"/>
<text text-anchor="start" x="1253.5" y="-245.8" font-family="Helvetica,sans-Serif" font-size="14.00">Age ≤ 46.5</text>
<text text-anchor="start" x="1178.5" y="-230.8" font-family="Helvetica,sans-Serif" font-size="14.00">squared_error = 838501299.622</text>
<text text-anchor="start" x="1245" y="-215.8" font-family="Helvetica,sans-Serif" font-size="14.00">samples = 92</text>
<text text-anchor="start" x="1221" y="-200.8" font-family="Helvetica,sans-Serif" font-size="14.00">value = 151902.174</text>
</g>
<!-- 0&#45;&gt;8 -->
<g id="edge8" class="edge">
<title>0&#45;&gt;8</title>
<path fill="none" stroke="black" d="M1121.29,-296.88C1146.81,-286.68 1175.06,-275.38 1201.17,-264.93"/>
<polygon fill="black" stroke="black" points="1202.7,-268.09 1210.69,-261.12 1200.1,-261.59 1202.7,-268.09"/>
<text text-anchor="middle" x="1200.84" y="-280.4" font-family="Helvetica,sans-Serif" font-size="14.00">False</text>
</g>
<!-- 2 -->
<g id="node3" class="node">
<title>2</title>
<path fill="#fdf8f3" stroke="black" d="M489.5,-157C489.5,-157 267.5,-157 267.5,-157 261.5,-157 255.5,-151 255.5,-145 255.5,-145 255.5,-101 255.5,-101 255.5,-95 261.5,-89 267.5,-89 267.5,-89 489.5,-89 489.5,-89 495.5,-89 501.5,-95 501.5,-101 501.5,-101 501.5,-145 501.5,-145 501.5,-151 495.5,-157 489.5,-157"/>
<text text-anchor="start" x="348" y="-141.8" font-family="Helvetica,sans-Serif" font-size="14.00">xp ≤ 2.5</text>
<text text-anchor="start" x="263.5" y="-126.8" font-family="Helvetica,sans-Serif" font-size="14.00">squared_error = 179907300.716</text>
<text text-anchor="start" x="330" y="-111.8" font-family="Helvetica,sans-Serif" font-size="14.00">samples = 81</text>
<text text-anchor="start" x="310.5" y="-96.8" font-family="Helvetica,sans-Serif" font-size="14.00">value = 47411.728</text>
</g>
<!-- 1&#45;&gt;2 -->
<g id="edge2" class="edge">
<title>1&#45;&gt;2</title>
<path fill="none" stroke="black" d="M651.37,-194.29C606.95,-182.84 556.64,-169.88 511.42,-158.24"/>
<polygon fill="black" stroke="black" points="512.11,-154.8 501.55,-155.69 510.36,-161.58 512.11,-154.8"/>
</g>
<!-- 5 -->
<g id="node6" class="node">
<title>5</title>
<path fill="#f5ceb1" stroke="black" d="M885.5,-157C885.5,-157 663.5,-157 663.5,-157 657.5,-157 651.5,-151 651.5,-145 651.5,-145 651.5,-101 651.5,-101 651.5,-95 657.5,-89 663.5,-89 663.5,-89 885.5,-89 885.5,-89 891.5,-89 897.5,-95 897.5,-101 897.5,-101 897.5,-145 897.5,-145 897.5,-151 891.5,-157 885.5,-157"/>
<text text-anchor="start" x="744" y="-141.8" font-family="Helvetica,sans-Serif" font-size="14.00">xp ≤ 8.5</text>
<text text-anchor="start" x="659.5" y="-126.8" font-family="Helvetica,sans-Serif" font-size="14.00">squared_error = 371988236.885</text>
<text text-anchor="start" x="726" y="-111.8" font-family="Helvetica,sans-Serif" font-size="14.00">samples = 86</text>
<text text-anchor="start" x="706.5" y="-96.8" font-family="Helvetica,sans-Serif" font-size="14.00">value = 94011.628</text>
</g>
<!-- 1&#45;&gt;5 -->
<g id="edge5" class="edge">
<title>1&#45;&gt;5</title>
<path fill="none" stroke="black" d="M774.5,-192.88C774.5,-184.78 774.5,-175.98 774.5,-167.47"/>
<polygon fill="black" stroke="black" points="778,-167.3 774.5,-157.3 771,-167.3 778,-167.3"/>
</g>
<!-- 3 -->
<g id="node4" class="node">
<title>3</title>
<path fill="#ffffff" stroke="black" d="M225,-53C225,-53 12,-53 12,-53 6,-53 0,-47 0,-41 0,-41 0,-12 0,-12 0,-6 6,0 12,0 12,0 225,0 225,0 231,0 237,-6 237,-12 237,-12 237,-41 237,-41 237,-47 231,-53 225,-53"/>
<text text-anchor="start" x="8" y="-37.8" font-family="Helvetica,sans-Serif" font-size="14.00">squared_error = 72132041.644</text>
<text text-anchor="start" x="70" y="-22.8" font-family="Helvetica,sans-Serif" font-size="14.00">samples = 43</text>
<text text-anchor="start" x="50.5" y="-7.8" font-family="Helvetica,sans-Serif" font-size="14.00">value = 39310.465</text>
</g>
<!-- 2&#45;&gt;3 -->
<g id="edge3" class="edge">
<title>2&#45;&gt;3</title>
<path fill="none" stroke="black" d="M287.56,-88.95C258.49,-78.38 226.54,-66.77 198.32,-56.51"/>
<polygon fill="black" stroke="black" points="199.49,-53.21 188.9,-53.09 197.1,-59.79 199.49,-53.21"/>
</g>
<!-- 4 -->
<g id="node5" class="node">
<title>4</title>
<path fill="#fcefe6" stroke="black" d="M489.5,-53C489.5,-53 267.5,-53 267.5,-53 261.5,-53 255.5,-47 255.5,-41 255.5,-41 255.5,-12 255.5,-12 255.5,-6 261.5,0 267.5,0 267.5,0 489.5,0 489.5,0 495.5,0 501.5,-6 501.5,-12 501.5,-12 501.5,-41 501.5,-41 501.5,-47 495.5,-53 489.5,-53"/>
<text text-anchor="start" x="263.5" y="-37.8" font-family="Helvetica,sans-Serif" font-size="14.00">squared_error = 143559556.787</text>
<text text-anchor="start" x="330" y="-22.8" font-family="Helvetica,sans-Serif" font-size="14.00">samples = 38</text>
<text text-anchor="start" x="310.5" y="-7.8" font-family="Helvetica,sans-Serif" font-size="14.00">value = 56578.947</text>
</g>
<!-- 2&#45;&gt;4 -->
<g id="edge4" class="edge">
<title>2&#45;&gt;4</title>
<path fill="none" stroke="black" d="M378.5,-88.95C378.5,-80.72 378.5,-71.85 378.5,-63.48"/>
<polygon fill="black" stroke="black" points="382,-63.24 378.5,-53.24 375,-63.24 382,-63.24"/>
</g>
<!-- 6 -->
<g id="node7" class="node">
<title>6</title>
<path fill="#f6d5bd" stroke="black" d="M753.5,-53C753.5,-53 531.5,-53 531.5,-53 525.5,-53 519.5,-47 519.5,-41 519.5,-41 519.5,-12 519.5,-12 519.5,-6 525.5,0 531.5,0 531.5,0 753.5,0 753.5,0 759.5,0 765.5,-6 765.5,-12 765.5,-12 765.5,-41 765.5,-41 765.5,-47 759.5,-53 753.5,-53"/>
<text text-anchor="start" x="527.5" y="-37.8" font-family="Helvetica,sans-Serif" font-size="14.00">squared_error = 251512163.051</text>
<text text-anchor="start" x="594" y="-22.8" font-family="Helvetica,sans-Serif" font-size="14.00">samples = 39</text>
<text text-anchor="start" x="574.5" y="-7.8" font-family="Helvetica,sans-Serif" font-size="14.00">value = 85641.026</text>
</g>
<!-- 5&#45;&gt;6 -->
<g id="edge6" class="edge">
<title>5&#45;&gt;6</title>
<path fill="none" stroke="black" d="M728.33,-88.95C714.79,-79.25 700.01,-68.68 686.6,-59.07"/>
<polygon fill="black" stroke="black" points="688.62,-56.21 678.45,-53.24 684.54,-61.9 688.62,-56.21"/>
</g>
<!-- 7 -->
<g id="node8" class="node">
<title>7</title>
<path fill="#f3c7a7" stroke="black" d="M1017.5,-53C1017.5,-53 795.5,-53 795.5,-53 789.5,-53 783.5,-47 783.5,-41 783.5,-41 783.5,-12 783.5,-12 783.5,-6 789.5,0 795.5,0 795.5,0 1017.5,0 1017.5,0 1023.5,0 1029.5,-6 1029.5,-12 1029.5,-12 1029.5,-41 1029.5,-41 1029.5,-47 1023.5,-53 1017.5,-53"/>
<text text-anchor="start" x="791.5" y="-37.8" font-family="Helvetica,sans-Serif" font-size="14.00">squared_error = 365572657.311</text>
<text text-anchor="start" x="858" y="-22.8" font-family="Helvetica,sans-Serif" font-size="14.00">samples = 47</text>
<text text-anchor="start" x="834" y="-7.8" font-family="Helvetica,sans-Serif" font-size="14.00">value = 100957.447</text>
</g>
<!-- 5&#45;&gt;7 -->
<g id="edge7" class="edge">
<title>5&#45;&gt;7</title>
<path fill="none" stroke="black" d="M820.67,-88.95C834.21,-79.25 848.99,-68.68 862.4,-59.07"/>
<polygon fill="black" stroke="black" points="864.46,-61.9 870.55,-53.24 860.38,-56.21 864.46,-61.9"/>
</g>
<!-- 9 -->
<g id="node10" class="node">
<title>9</title>
<path fill="#eca572" stroke="black" d="M1404.5,-157C1404.5,-157 1182.5,-157 1182.5,-157 1176.5,-157 1170.5,-151 1170.5,-145 1170.5,-145 1170.5,-101 1170.5,-101 1170.5,-95 1176.5,-89 1182.5,-89 1182.5,-89 1404.5,-89 1404.5,-89 1410.5,-89 1416.5,-95 1416.5,-101 1416.5,-101 1416.5,-145 1416.5,-145 1416.5,-151 1410.5,-157 1404.5,-157"/>
<text text-anchor="start" x="1258.5" y="-141.8" font-family="Helvetica,sans-Serif" font-size="14.00">xp ≤ 14.5</text>
<text text-anchor="start" x="1178.5" y="-126.8" font-family="Helvetica,sans-Serif" font-size="14.00">squared_error = 620837180.671</text>
<text text-anchor="start" x="1245" y="-111.8" font-family="Helvetica,sans-Serif" font-size="14.00">samples = 57</text>
<text text-anchor="start" x="1221" y="-96.8" font-family="Helvetica,sans-Serif" font-size="14.00">value = 138596.491</text>
</g>
<!-- 8&#45;&gt;9 -->
<g id="edge9" class="edge">
<title>8&#45;&gt;9</title>
<path fill="none" stroke="black" d="M1293.5,-192.88C1293.5,-184.78 1293.5,-175.98 1293.5,-167.47"/>
<polygon fill="black" stroke="black" points="1297,-167.3 1293.5,-157.3 1290,-167.3 1297,-167.3"/>
</g>
<!-- 12 -->
<g id="node13" class="node">
<title>12</title>
<path fill="#e68640" stroke="black" d="M1791.5,-157C1791.5,-157 1569.5,-157 1569.5,-157 1563.5,-157 1557.5,-151 1557.5,-145 1557.5,-145 1557.5,-101 1557.5,-101 1557.5,-95 1563.5,-89 1569.5,-89 1569.5,-89 1791.5,-89 1791.5,-89 1797.5,-89 1803.5,-95 1803.5,-101 1803.5,-101 1803.5,-145 1803.5,-145 1803.5,-151 1797.5,-157 1791.5,-157"/>
<text text-anchor="start" x="1639.5" y="-141.8" font-family="Helvetica,sans-Serif" font-size="14.00">is_BA ≤ 0.5</text>
<text text-anchor="start" x="1565.5" y="-126.8" font-family="Helvetica,sans-Serif" font-size="14.00">squared_error = 435102040.816</text>
<text text-anchor="start" x="1632" y="-111.8" font-family="Helvetica,sans-Serif" font-size="14.00">samples = 35</text>
<text text-anchor="start" x="1608" y="-96.8" font-family="Helvetica,sans-Serif" font-size="14.00">value = 173571.429</text>
</g>
<!-- 8&#45;&gt;12 -->
<g id="edge12" class="edge">
<title>8&#45;&gt;12</title>
<path fill="none" stroke="black" d="M1416.75,-193.52C1458.42,-182.53 1505.12,-170.22 1547.51,-159.05"/>
<polygon fill="black" stroke="black" points="1548.56,-162.4 1557.34,-156.46 1546.77,-155.63 1548.56,-162.4"/>
</g>
<!-- 10 -->
<g id="node11" class="node">
<title>10</title>
<path fill="#f0b890" stroke="black" d="M1281.5,-53C1281.5,-53 1059.5,-53 1059.5,-53 1053.5,-53 1047.5,-47 1047.5,-41 1047.5,-41 1047.5,-12 1047.5,-12 1047.5,-6 1053.5,0 1059.5,0 1059.5,0 1281.5,0 1281.5,0 1287.5,0 1293.5,-6 1293.5,-12 1293.5,-12 1293.5,-41 1293.5,-41 1293.5,-47 1287.5,-53 1281.5,-53"/>
<text text-anchor="start" x="1055.5" y="-37.8" font-family="Helvetica,sans-Serif" font-size="14.00">squared_error = 250346020.761</text>
<text text-anchor="start" x="1122" y="-22.8" font-family="Helvetica,sans-Serif" font-size="14.00">samples = 17</text>
<text text-anchor="start" x="1098" y="-7.8" font-family="Helvetica,sans-Serif" font-size="14.00">value = 117647.059</text>
</g>
<!-- 9&#45;&gt;10 -->
<g id="edge10" class="edge">
<title>9&#45;&gt;10</title>
<path fill="none" stroke="black" d="M1250.48,-88.95C1237.98,-79.34 1224.35,-68.87 1211.95,-59.34"/>
<polygon fill="black" stroke="black" points="1214.06,-56.55 1204,-53.24 1209.8,-62.1 1214.06,-56.55"/>
</g>
<!-- 11 -->
<g id="node12" class="node">
<title>11</title>
<path fill="#eb9d65" stroke="black" d="M1527.5,-53C1527.5,-53 1323.5,-53 1323.5,-53 1317.5,-53 1311.5,-47 1311.5,-41 1311.5,-41 1311.5,-12 1311.5,-12 1311.5,-6 1317.5,0 1323.5,0 1323.5,0 1527.5,0 1527.5,0 1533.5,0 1539.5,-6 1539.5,-12 1539.5,-12 1539.5,-41 1539.5,-41 1539.5,-47 1533.5,-53 1527.5,-53"/>
<text text-anchor="start" x="1319.5" y="-37.8" font-family="Helvetica,sans-Serif" font-size="14.00">squared_error = 512500000.0</text>
<text text-anchor="start" x="1377" y="-22.8" font-family="Helvetica,sans-Serif" font-size="14.00">samples = 40</text>
<text text-anchor="start" x="1362" y="-7.8" font-family="Helvetica,sans-Serif" font-size="14.00">value = 147500.0</text>
</g>
<!-- 9&#45;&gt;11 -->
<g id="edge11" class="edge">
<title>9&#45;&gt;11</title>
<path fill="none" stroke="black" d="M1339.67,-88.95C1353.21,-79.25 1367.99,-68.68 1381.4,-59.07"/>
<polygon fill="black" stroke="black" points="1383.46,-61.9 1389.55,-53.24 1379.38,-56.21 1383.46,-61.9"/>
</g>
<!-- 13 -->
<g id="node14" class="node">
<title>13</title>
<path fill="#e58139" stroke="black" d="M1791.5,-53C1791.5,-53 1569.5,-53 1569.5,-53 1563.5,-53 1557.5,-47 1557.5,-41 1557.5,-41 1557.5,-12 1557.5,-12 1557.5,-6 1563.5,0 1569.5,0 1569.5,0 1791.5,0 1791.5,0 1797.5,0 1803.5,-6 1803.5,-12 1803.5,-12 1803.5,-41 1803.5,-41 1803.5,-47 1797.5,-53 1791.5,-53"/>
<text text-anchor="start" x="1565.5" y="-37.8" font-family="Helvetica,sans-Serif" font-size="14.00">squared_error = 293222222.222</text>
<text text-anchor="start" x="1632" y="-22.8" font-family="Helvetica,sans-Serif" font-size="14.00">samples = 30</text>
<text text-anchor="start" x="1608" y="-7.8" font-family="Helvetica,sans-Serif" font-size="14.00">value = 178666.667</text>
</g>
<!-- 12&#45;&gt;13 -->
<g id="edge13" class="edge">
<title>12&#45;&gt;13</title>
<path fill="none" stroke="black" d="M1680.5,-88.95C1680.5,-80.72 1680.5,-71.85 1680.5,-63.48"/>
<polygon fill="black" stroke="black" points="1684,-63.24 1680.5,-53.24 1677,-63.24 1684,-63.24"/>
</g>
<!-- 14 -->
<g id="node15" class="node">
<title>14</title>
<path fill="#eca16c" stroke="black" d="M2037.5,-53C2037.5,-53 1833.5,-53 1833.5,-53 1827.5,-53 1821.5,-47 1821.5,-41 1821.5,-41 1821.5,-12 1821.5,-12 1821.5,-6 1827.5,0 1833.5,0 1833.5,0 2037.5,0 2037.5,0 2043.5,0 2049.5,-6 2049.5,-12 2049.5,-12 2049.5,-41 2049.5,-41 2049.5,-47 2043.5,-53 2037.5,-53"/>
<text text-anchor="start" x="1829.5" y="-37.8" font-family="Helvetica,sans-Serif" font-size="14.00">squared_error = 196000000.0</text>
<text text-anchor="start" x="1891.5" y="-22.8" font-family="Helvetica,sans-Serif" font-size="14.00">samples = 5</text>
<text text-anchor="start" x="1872" y="-7.8" font-family="Helvetica,sans-Serif" font-size="14.00">value = 143000.0</text>
</g>
<!-- 12&#45;&gt;14 -->
<g id="edge14" class="edge">
<title>12&#45;&gt;14</title>
<path fill="none" stroke="black" d="M1769.69,-88.95C1798.08,-78.43 1829.27,-66.87 1856.86,-56.64"/>
<polygon fill="black" stroke="black" points="1858.3,-59.84 1866.46,-53.09 1855.86,-53.28 1858.3,-59.84"/>
</g>
</g>
</svg>
